<?xml version="1.0" encoding="utf-8"?>
<!-- Generator: Adobe Illustrator 19.0.0, SVG Export Plug-In . SVG Version: 6.00 Build 0)  -->
<svg version="1.1" id="Layer_1" xmlns="http://www.w3.org/2000/svg" xmlns:xlink="http://www.w3.org/1999/xlink" x="0px" y="0px"
	 viewBox="-358 161 242.3 240" style="enable-background:new -358 161 242.3 240;" xml:space="preserve">
<style type="text/css">
	.st0{fill:url(#SVGID_1_);stroke:#9E32CC;stroke-width:3;stroke-miterlimit:10;}
	.st1{fill:#9E32CC;}
</style>
<g id="Layer_2">
	
		<radialGradient id="SVGID_1_" cx="-193.4349" cy="276.4626" r="124.5405" gradientTransform="matrix(0.957 0 0 -0.9476 -50.7828 542.976)" gradientUnits="userSpaceOnUse">
		<stop  offset="0" style="stop-color:#FFFFFF"/>
		<stop  offset="1" style="stop-color:#DCDCE0"/>
	</radialGradient>
	<ellipse class="st0" cx="-235.9" cy="281" rx="119.2" ry="118"/>
</g>
<g id="Layer_1_1_">
	<g>
		<path class="st1" d="M-258,234.7c-19.5-3.6-34.9,0.2-41.1,10.8c-4.6,7.9-3.3,18.5,3.2,29.7c0.5,1,1.8,1.3,2.7,0.7
			c1-0.5,1.3-1.8,0.7-2.7c-5.8-10.1-6.9-19.2-3.2-25.7c5.1-8.8,18.9-12.2,36.9-8.9c1.1,0.2,2.1-0.5,2.3-1.6
			C-256.3,235.9-256.9,234.9-258,234.7z M-285.7,288.9c7.9,8.7,18.1,16.8,29.8,23.5c28.3,16.3,58.4,20.7,73.3,10.6
			c0.9-0.6,1.1-1.9,0.5-2.8s-1.9-1.1-2.8-0.5c-13.3,9.1-41.9,4.9-69-10.7c-11.3-6.5-21.3-14.4-28.9-22.8c-0.7-0.8-2-0.9-2.8-0.1
			C-286.4,286.8-286.5,288.1-285.7,288.9z"/>
		<path class="st1" d="M-187.4,286.5c12.8-15.1,17.2-30.3,11.1-40.9c-4.5-7.8-14.1-11.9-26.7-12.1c-1.1,0-2,0.9-2,2s0.9,2,2,2
			c11.4,0.1,19.6,3.7,23.3,10.1c5.1,8.8,1.1,22.4-10.7,36.3c-0.7,0.8-0.6,2.1,0.2,2.8C-189.4,287.4-188.1,287.3-187.4,286.5z
			 M-220.2,235.3c-11.5,2.5-23.8,7.3-35.6,14.1c-29.3,16.9-48.3,41.8-45.7,59.8c0.2,1.1,1.2,1.8,2.3,1.7c1.1-0.2,1.8-1.2,1.7-2.3
			c-2.4-16,15.7-39.5,43.7-55.7c11.5-6.6,23.4-11.3,34.5-13.7c1.1-0.2,1.8-1.3,1.5-2.4C-218.1,235.8-219.1,235.1-220.2,235.3z"/>
		<path class="st1" d="M-267.5,321.7c6.7,18.6,17.6,30.1,29.9,30.1c9,0,17.2-6.1,23.7-16.9c0.6-0.9,0.3-2.2-0.7-2.7
			c-0.9-0.6-2.2-0.3-2.7,0.7c-5.8,9.7-12.9,14.9-20.3,14.9c-10.2,0-19.9-10.2-26.1-27.5c-0.4-1-1.5-1.6-2.6-1.2
			C-267.4,319.5-267.9,320.7-267.5,321.7z M-206.5,318.1c3.5-11,5.3-23.8,5.3-37.1c0-33.1-11.6-61.7-28.1-69c-1-0.4-2.2,0-2.6,1
			s0,2.2,1,2.6c14.7,6.5,25.7,33.6,25.7,65.4c0,12.9-1.8,25.2-5.1,35.9c-0.3,1.1,0.3,2.2,1.3,2.5
			C-208,319.7-206.9,319.1-206.5,318.1z M-168.9,316.1c0-5.3-4.3-9.6-9.6-9.6c-5.3,0-9.6,4.3-9.6,9.6c0,5.3,4.3,9.6,9.6,9.6
			C-173.1,325.7-168.9,321.4-168.9,316.1z M-172.9,316.1c0,3.1-2.5,5.6-5.6,5.6s-5.6-2.5-5.6-5.6s2.5-5.6,5.6-5.6
			C-175.4,310.5-172.9,313-172.9,316.1z M-297,325.7c5.3,0,9.6-4.3,9.6-9.6c0-5.3-4.3-9.6-9.6-9.6s-9.6,4.3-9.6,9.6
			C-306.6,321.4-302.3,325.7-297,325.7z M-297,321.7c-3.1,0-5.6-2.5-5.6-5.6s2.5-5.6,5.6-5.6s5.6,2.5,5.6,5.6
			S-293.9,321.7-297,321.7z"/>
		<path class="st1" d="M-237.6,221.7c5.3,0,9.6-4.3,9.6-9.6s-4.3-9.6-9.6-9.6s-9.6,4.3-9.6,9.6S-242.9,221.7-237.6,221.7z
			 M-237.6,217.7c-3.1,0-5.6-2.5-5.6-5.6s2.5-5.6,5.6-5.6s5.6,2.5,5.6,5.6S-234.6,217.7-237.6,217.7z M-236.2,287.8
			c-3.7,0.8-7.4-1.6-8.2-5.3c-0.8-3.7,1.6-7.4,5.3-8.2s7.4,1.6,8.2,5.3C-230.1,283.3-232.4,287-236.2,287.8z"/>
	</g>
</g>
</svg>
